# xmcd
#
# Track frame offsets:
#	150
#	10427
#	36986
#	60377
#	65514
#	84588
#	97796
#	119712
#	141373
#	153718
#
# Disc length: 2282 seconds
#
# Revision: 1
# Processed by: cddbd v1.5.2PL0 Copyright (c) Steve Scherf et al.
# Submitted via: audiograbber 1.83.01
#
DISCID=8908e80a
DTITLE=Aisling - Stone of Light
DYEAR=2009
DGENRE=Metal
TTITLE0=Speir-Bhean Calling
TTITLE1=Stone Of Light
TTITLE2=Life's Mirror
TTITLE3=Whispers From The Circle Tress
TTITLE4=Percedol
TTITLE5=Where Immortality Lies. Part I
TTITLE6=Where Immortality Lies. Part II
TTITLE7=To Be Born Again
TTITLE8=Black Wind Vengeance
TTITLE9=Bora
EXTD=
EXTT0=
EXTT1=
EXTT2=
EXTT3=
EXTT4=
EXTT5=
EXTT6=
EXTT7=
EXTT8=
EXTT9=
PLAYORDER=
